ffmpeg started on 2025-06-27 at 12:03:36
Report written to "D:\Convert\FFMetrics\reports\ssim_report-6.txt"
Log level: 32
Command line:
ffmpeg -hide_banner -nostdin -i "G:\\\xc0\xed\xe8\xec\xe5\\[\xd2\xee\xef]\\\xcf\xee\xe2\xe5\xeb\xe8\xf2\xe5\xeb\xfc\\\xd2\xc2-2\\Special\\[Ohys-Raws] Overlord II - SP07 (BDRip-720p)_HEVC.mkv" -i "G:\\\xc0\xed\xe8\xec\xe5\\[\xd2\xee\xef]\\\xcf\xee\xe2\xe5\xeb\xe8\xf2\xe5\xeb\xfc\\\xd2\xc2-2\\Special\\[Ohys-Raws] Overlord II - SP07 (BDRip-720p).mkv" -lavfi "[0:v]settb=AVTB,setpts=PTS-STARTPTS,format=pix_fmts=yuv420p10,fps=24000/1001,scale=1280:720:flags=bicubic[main];[1:v]settb=AVTB,setpts=PTS-STARTPTS,format=pix_fmts=yuv420p,fps=24000/1001,scale=1280:720:flags=bicubic[ref];[main][ref]ssim=eof_action=endall:stats_file='D\\:/Convert/FFMetrics/logs/ssim_logfile-6.txt'" -f null -
Input #0, matroska,webm, from 'G:\Аниме\[Топ]\Повелитель\ТВ-2\Special\[Ohys-Raws] Overlord II - SP07 (BDRip-720p)_HEVC.mkv':
  Metadata:
    ENCODER         : Lavf61.7.100
  Duration: 00:01:32.10, start: -0.021000, bitrate: 445 kb/s
  Stream #0:0(jpn): Video: hevc (Main 10), yuv420p10le(tv, bt709, progressive), 1280x720 [SAR 1:1 DAR 16:9], 23.98 fps, 23.98 tbr, 1k tbn (default)
      Metadata:
        ENCODER         : Lavc61.19.100 libx265
        BPS             : 244545
        DURATION        : 00:01:32.091708333
        NUMBER_OF_FRAMES: 2208
        NUMBER_OF_BYTES : 2815051
        _STATISTICS_WRITING_APP: mkvpropedit v66.0.0 ('Josie') 64-bit
        _STATISTICS_WRITING_DATE_UTC: 2025-06-27 08:24:46
        _STATISTICS_TAGS: BPS DURATION NUMBER_OF_FRAMES NUMBER_OF_BYTES
  Stream #0:1(jpn): Audio: aac (LC), 48000 Hz, stereo, fltp (default)
      Metadata:
        ENCODER         : Lavc61.19.100 aac
        BPS             : 196836
        DURATION        : 00:01:32.075000000
        NUMBER_OF_FRAMES: 4317
        NUMBER_OF_BYTES : 2265464
        _STATISTICS_WRITING_APP: mkvpropedit v66.0.0 ('Josie') 64-bit
        _STATISTICS_WRITING_DATE_UTC: 2025-06-27 08:24:46
        _STATISTICS_TAGS: BPS DURATION NUMBER_OF_FRAMES NUMBER_OF_BYTES
Input #1, matroska,webm, from 'G:\Аниме\[Топ]\Повелитель\ТВ-2\Special\[Ohys-Raws] Overlord II - SP07 (BDRip-720p).mkv':
  Metadata:
    encoder         : libebml v1.2.3 + libmatroska v1.3.0
    creation_time   : 2018-08-21T12:07:03.000000Z
  Duration: 00:01:32.09, start: 0.000000, bitrate: 1198 kb/s
  Stream #1:0(jpn): Video: h264 (Main), yuv420p(progressive), 1280x720 [SAR 1:1 DAR 16:9], 23.98 fps, 23.98 tbr, 1k tbn (default)
  Stream #1:1(jpn): Audio: aac (LC), 48000 Hz, stereo, fltp (default)
Stream mapping:
  Stream #0:0 (hevc) -> settb:default
  Stream #1:0 (h264) -> settb:default
  ssim:default -> Stream #0:0 (wrapped_avframe)
  Stream #0:1 -> #0:1 (aac (native) -> pcm_s16le (native))
[swscaler @ 0000020996bd8140] No accelerated colorspace conversion found from yuv420p to bgr48le.
[swscaler @ 0000020996d3c900] No accelerated colorspace conversion found from yuv420p to bgr48le.
[swscaler @ 0000020996e21fc0] No accelerated colorspace conversion found from yuv420p to bgr48le.
[swscaler @ 0000020996e83dc0] No accelerated colorspace conversion found from yuv420p to bgr48le.
[swscaler @ 0000020996ef3980] No accelerated colorspace conversion found from yuv420p to bgr48le.
[swscaler @ 0000020996f989c0] No accelerated colorspace conversion found from yuv420p to bgr48le.
[swscaler @ 0000020997044100] No accelerated colorspace conversion found from yuv420p to bgr48le.
[swscaler @ 00000209971b3780] No accelerated colorspace conversion found from yuv420p to bgr48le.
[swscaler @ 0000020997282b40] No accelerated colorspace conversion found from yuv420p to bgr48le.
[swscaler @ 0000020997470040] No accelerated colorspace conversion found from yuv420p to bgr48le.
[swscaler @ 000002099753eb40] No accelerated colorspace conversion found from yuv420p to bgr48le.
[swscaler @ 000002099773bac0] No accelerated colorspace conversion found from yuv420p to bgr48le.
[swscaler @ 0000020997797040] No accelerated colorspace conversion found from yuv420p to bgr48le.
[swscaler @ 00000209979037c0] No accelerated colorspace conversion found from yuv420p to bgr48le.
[swscaler @ 0000020997960040] No accelerated colorspace conversion found from yuv420p to bgr48le.
[swscaler @ 00000209979cb040] No accelerated colorspace conversion found from yuv420p to bgr48le.
Output #0, null, to 'pipe:':
  Metadata:
    encoder         : Lavf61.7.100
  Stream #0:0: Video: wrapped_avframe, yuv420p10le(tv, bt709, progressive), 1280x720 [SAR 1:1 DAR 16:9], q=2-31, 200 kb/s, 23.98 fps, 23.98 tbn
      Metadata:
        encoder         : Lavc61.19.100 wrapped_avframe
  Stream #0:1(jpn): Audio: pcm_s16le, 48000 Hz, stereo, s16, 1536 kb/s (default)
      Metadata:
        _STATISTICS_TAGS: BPS DURATION NUMBER_OF_FRAMES NUMBER_OF_BYTES
        BPS             : 196836
        DURATION        : 00:01:32.075000000
        NUMBER_OF_FRAMES: 4317
        NUMBER_OF_BYTES : 2265464
        _STATISTICS_WRITING_APP: mkvpropedit v66.0.0 ('Josie') 64-bit
        _STATISTICS_WRITING_DATE_UTC: 2025-06-27 08:24:46
        encoder         : Lavc61.19.100 pcm_s16le
frame=   78 fps=0.0 q=-0.0 size=N/A time=00:00:03.25 bitrate=N/A speed=6.24x    frame=  169 fps=164 q=-0.0 size=N/A time=00:00:07.04 bitrate=N/A speed=6.82x    frame=  259 fps=168 q=-0.0 size=N/A time=00:00:10.80 bitrate=N/A speed=6.99x    frame=  347 fps=167 q=-0.0 size=N/A time=00:00:14.47 bitrate=N/A speed=6.98x    frame=  443 fps=171 q=-0.0 size=N/A time=00:00:18.47 bitrate=N/A speed=7.15x    frame=  533 fps=172 q=-0.0 size=N/A time=00:00:22.23 bitrate=N/A speed=7.19x    frame=  622 fps=172 q=-0.0 size=N/A time=00:00:25.94 bitrate=N/A speed=7.18x    frame=  714 fps=173 q=-0.0 size=N/A time=00:00:29.77 bitrate=N/A speed=7.22x    frame=  805 fps=173 q=-0.0 size=N/A time=00:00:33.57 bitrate=N/A speed=7.23x    frame=  894 fps=173 q=-0.0 size=N/A time=00:00:37.28 bitrate=N/A speed=7.23x    frame=  986 fps=173 q=-0.0 size=N/A time=00:00:41.12 bitrate=N/A speed=7.23x    frame= 1075 fps=173 q=-0.0 size=N/A time=00:00:44.83 bitrate=N/A speed=7.24x    frame= 1161 fps=173 q=-0.0 size=N/A time=00:00:48.42 bitrate=N/A speed=7.22x    frame= 1248 fps=173 q=-0.0 size=N/A time=00:00:52.05 bitrate=N/A speed=7.21x    frame= 1349 fps=174 q=-0.0 size=N/A time=00:00:56.26 bitrate=N/A speed=7.27x    frame= 1438 fps=174 q=-0.0 size=N/A time=00:00:59.97 bitrate=N/A speed=7.27x    frame= 1533 fps=175 q=-0.0 size=N/A time=00:01:03.93 bitrate=N/A speed=7.28x    frame= 1624 fps=175 q=-0.0 size=N/A time=00:01:07.73 bitrate=N/A speed=7.29x    frame= 1712 fps=175 q=-0.0 size=N/A time=00:01:11.40 bitrate=N/A speed=7.29x    frame= 1803 fps=175 q=-0.0 size=N/A time=00:01:15.20 bitrate=N/A speed=7.29x    frame= 1897 fps=175 q=-0.0 size=N/A time=00:01:19.12 bitrate=N/A speed= 7.3x    frame= 1987 fps=175 q=-0.0 size=N/A time=00:01:22.87 bitrate=N/A speed= 7.3x    frame= 2079 fps=175 q=-0.0 size=N/A time=00:01:26.71 bitrate=N/A speed= 7.3x    frame= 2172 fps=175 q=-0.0 size=N/A time=00:01:30.59 bitrate=N/A speed=7.31x    [Parsed_ssim_10 @ 00000209964f7880] SSIM Y:0.990549 (20.245156) U:0.990233 (20.102397) V:0.989266 (19.692401) All:0.990282 (20.124416)
[out#0/null @ 000002098a8c2a00] video:949KiB audio:17268KiB subtitle:0KiB other streams:0KiB global headers:0KiB muxing overhead: unknown
frame= 2208 fps=175 q=-0.0 Lsize=N/A time=00:01:32.09 bitrate=N/A speed= 7.3x    
